<mxfile host="app.diagrams.net" modified="2022-03-11T09:00:12.210Z" agent="5.0 (Windows NT 10.0; Win64; x64) AppleWebKit/537.36 (KHTML, like Gecko) Chrome/99.0.4844.51 Safari/537.36" etag="3k8JxeH2bhL4wV0VuPBP" version="17.1.1" type="github">
  <diagram id="F9pm2DE33bu0j5z2Wusm" name="Page-1">
    <mxGraphModel dx="1072" dy="852" grid="1" gridSize="10" guides="1" tooltips="1" connect="1" arrows="1" fold="1" page="1" pageScale="1" pageWidth="827" pageHeight="1169" math="0" shadow="0">
      <root>
        <mxCell id="0" />
        <mxCell id="1" parent="0" />
        <mxCell id="DTnAzmeqmF2A0JMvfNSm-1" value="Tài khoản" style="text;html=1;align=center;verticalAlign=middle;resizable=0;points=[];autosize=1;strokeColor=none;fillColor=none;" vertex="1" parent="1">
          <mxGeometry x="70" y="20" width="70" height="20" as="geometry" />
        </mxCell>
        <mxCell id="DTnAzmeqmF2A0JMvfNSm-2" value="&lt;u&gt;Mã TK&lt;/u&gt;" style="rounded=0;whiteSpace=wrap;html=1;" vertex="1" parent="1">
          <mxGeometry x="80" y="50" width="100" height="60" as="geometry" />
        </mxCell>
        <mxCell id="DTnAzmeqmF2A0JMvfNSm-3" value="" style="shape=partialRectangle;html=1;whiteSpace=wrap;connectable=0;fillColor=none;top=0;left=0;bottom=0;right=0;overflow=hidden;" vertex="1" parent="1">
          <mxGeometry x="560" y="310" width="156" height="40" as="geometry">
            <mxRectangle width="156" height="40" as="alternateBounds" />
          </mxGeometry>
        </mxCell>
        <mxCell id="DTnAzmeqmF2A0JMvfNSm-4" value="" style="shape=partialRectangle;html=1;whiteSpace=wrap;connectable=0;fillColor=none;top=0;left=0;bottom=0;right=0;overflow=hidden;" vertex="1" parent="1">
          <mxGeometry x="560" y="310" width="156" height="40" as="geometry">
            <mxRectangle width="156" height="40" as="alternateBounds" />
          </mxGeometry>
        </mxCell>
        <mxCell id="DTnAzmeqmF2A0JMvfNSm-5" value="Tên TK" style="rounded=0;whiteSpace=wrap;html=1;" vertex="1" parent="1">
          <mxGeometry x="180" y="50" width="110" height="60" as="geometry" />
        </mxCell>
        <mxCell id="DTnAzmeqmF2A0JMvfNSm-6" value="Mật khẩu" style="rounded=0;whiteSpace=wrap;html=1;" vertex="1" parent="1">
          <mxGeometry x="290" y="50" width="120" height="60" as="geometry" />
        </mxCell>
        <mxCell id="DTnAzmeqmF2A0JMvfNSm-7" value="Loại TK" style="rounded=0;whiteSpace=wrap;html=1;" vertex="1" parent="1">
          <mxGeometry x="410" y="50" width="120" height="60" as="geometry" />
        </mxCell>
        <mxCell id="DTnAzmeqmF2A0JMvfNSm-8" value="Danh mục" style="text;html=1;strokeColor=none;fillColor=none;align=center;verticalAlign=middle;whiteSpace=wrap;rounded=0;" vertex="1" parent="1">
          <mxGeometry x="78" y="230" width="60" height="30" as="geometry" />
        </mxCell>
        <mxCell id="DTnAzmeqmF2A0JMvfNSm-10" value="Ghi chú" style="rounded=0;whiteSpace=wrap;html=1;" vertex="1" parent="1">
          <mxGeometry x="435" y="270" width="120" height="60" as="geometry" />
        </mxCell>
        <mxCell id="DTnAzmeqmF2A0JMvfNSm-11" value="Chi tiết danh mục" style="rounded=0;whiteSpace=wrap;html=1;" vertex="1" parent="1">
          <mxGeometry x="315" y="270" width="120" height="60" as="geometry" />
        </mxCell>
        <mxCell id="DTnAzmeqmF2A0JMvfNSm-12" value="Tên danh mục" style="rounded=0;whiteSpace=wrap;html=1;" vertex="1" parent="1">
          <mxGeometry x="195" y="270" width="120" height="60" as="geometry" />
        </mxCell>
        <mxCell id="DTnAzmeqmF2A0JMvfNSm-13" value="&lt;u&gt;Mã danh mục&lt;/u&gt;" style="rounded=0;whiteSpace=wrap;html=1;" vertex="1" parent="1">
          <mxGeometry x="80" y="270" width="120" height="60" as="geometry" />
        </mxCell>
        <mxCell id="DTnAzmeqmF2A0JMvfNSm-14" value="Nhân viên" style="text;html=1;align=center;verticalAlign=middle;resizable=0;points=[];autosize=1;strokeColor=none;fillColor=none;" vertex="1" parent="1">
          <mxGeometry x="78" y="130" width="70" height="20" as="geometry" />
        </mxCell>
        <mxCell id="DTnAzmeqmF2A0JMvfNSm-15" value="Địa chỉ" style="rounded=0;whiteSpace=wrap;html=1;" vertex="1" parent="1">
          <mxGeometry x="364" y="150" width="96" height="60" as="geometry" />
        </mxCell>
        <mxCell id="DTnAzmeqmF2A0JMvfNSm-16" value="Gioi tính" style="rounded=0;whiteSpace=wrap;html=1;" vertex="1" parent="1">
          <mxGeometry x="272" y="150" width="92" height="60" as="geometry" />
        </mxCell>
        <mxCell id="DTnAzmeqmF2A0JMvfNSm-20" value="Số điện thoại" style="rounded=0;whiteSpace=wrap;html=1;" vertex="1" parent="1">
          <mxGeometry x="460" y="150" width="84" height="60" as="geometry" />
        </mxCell>
        <mxCell id="DTnAzmeqmF2A0JMvfNSm-21" value="Tên NV" style="rounded=0;whiteSpace=wrap;html=1;" vertex="1" parent="1">
          <mxGeometry x="180" y="150" width="92" height="60" as="geometry" />
        </mxCell>
        <mxCell id="DTnAzmeqmF2A0JMvfNSm-22" value="&lt;u&gt;MÃ NV&lt;/u&gt;" style="rounded=0;whiteSpace=wrap;html=1;" vertex="1" parent="1">
          <mxGeometry x="78" y="150" width="102" height="60" as="geometry" />
        </mxCell>
        <mxCell id="DTnAzmeqmF2A0JMvfNSm-23" style="edgeStyle=orthogonalEdgeStyle;rounded=0;orthogonalLoop=1;jettySize=auto;html=1;exitX=0.5;exitY=1;exitDx=0;exitDy=0;" edge="1" parent="1" source="DTnAzmeqmF2A0JMvfNSm-22" target="DTnAzmeqmF2A0JMvfNSm-22">
          <mxGeometry relative="1" as="geometry" />
        </mxCell>
        <mxCell id="DTnAzmeqmF2A0JMvfNSm-24" value="Khách hàng" style="text;html=1;strokeColor=none;fillColor=none;align=center;verticalAlign=middle;whiteSpace=wrap;rounded=0;" vertex="1" parent="1">
          <mxGeometry x="80" y="450" width="70" height="30" as="geometry" />
        </mxCell>
        <mxCell id="DTnAzmeqmF2A0JMvfNSm-25" value="Tên KH" style="rounded=0;whiteSpace=wrap;html=1;" vertex="1" parent="1">
          <mxGeometry x="170" y="480" width="90" height="60" as="geometry" />
        </mxCell>
        <mxCell id="DTnAzmeqmF2A0JMvfNSm-26" value="giới tính" style="rounded=0;whiteSpace=wrap;html=1;" vertex="1" parent="1">
          <mxGeometry x="350" y="480" width="90" height="60" as="geometry" />
        </mxCell>
        <mxCell id="DTnAzmeqmF2A0JMvfNSm-27" value="Ngày sinh" style="rounded=0;whiteSpace=wrap;html=1;" vertex="1" parent="1">
          <mxGeometry x="260" y="480" width="90" height="60" as="geometry" />
        </mxCell>
        <mxCell id="DTnAzmeqmF2A0JMvfNSm-28" value="&lt;u&gt;Mã KH&lt;/u&gt;" style="rounded=0;whiteSpace=wrap;html=1;" vertex="1" parent="1">
          <mxGeometry x="80" y="480" width="90" height="60" as="geometry" />
        </mxCell>
        <mxCell id="DTnAzmeqmF2A0JMvfNSm-29" value="Hóa đơn" style="text;html=1;align=center;verticalAlign=middle;resizable=0;points=[];autosize=1;strokeColor=none;fillColor=none;" vertex="1" parent="1">
          <mxGeometry x="75" y="550" width="60" height="20" as="geometry" />
        </mxCell>
        <mxCell id="DTnAzmeqmF2A0JMvfNSm-30" value="Mã KH" style="rounded=0;whiteSpace=wrap;html=1;" vertex="1" parent="1">
          <mxGeometry x="195" y="570" width="120" height="60" as="geometry" />
        </mxCell>
        <mxCell id="DTnAzmeqmF2A0JMvfNSm-31" value="&lt;u&gt;Mã hóa đơn&lt;/u&gt;" style="rounded=0;whiteSpace=wrap;html=1;" vertex="1" parent="1">
          <mxGeometry x="80" y="570" width="120" height="60" as="geometry" />
        </mxCell>
        <mxCell id="DTnAzmeqmF2A0JMvfNSm-32" value="Hóa đơn chi tiết" style="text;html=1;align=center;verticalAlign=middle;resizable=0;points=[];autosize=1;strokeColor=none;fillColor=none;" vertex="1" parent="1">
          <mxGeometry x="75" y="640" width="100" height="20" as="geometry" />
        </mxCell>
        <mxCell id="DTnAzmeqmF2A0JMvfNSm-33" value="Gía bán" style="rounded=0;whiteSpace=wrap;html=1;" vertex="1" parent="1">
          <mxGeometry x="441" y="670" width="120" height="60" as="geometry" />
        </mxCell>
        <mxCell id="DTnAzmeqmF2A0JMvfNSm-34" value="Số lượng mua" style="rounded=0;whiteSpace=wrap;html=1;" vertex="1" parent="1">
          <mxGeometry x="320" y="670" width="120" height="60" as="geometry" />
        </mxCell>
        <mxCell id="DTnAzmeqmF2A0JMvfNSm-35" value="Mã sản phẩm" style="rounded=0;whiteSpace=wrap;html=1;" vertex="1" parent="1">
          <mxGeometry x="200" y="670" width="120" height="60" as="geometry" />
        </mxCell>
        <mxCell id="DTnAzmeqmF2A0JMvfNSm-36" value="&lt;u&gt;Mã hóa đơn&lt;/u&gt;" style="rounded=0;whiteSpace=wrap;html=1;" vertex="1" parent="1">
          <mxGeometry x="80" y="670" width="120" height="60" as="geometry" />
        </mxCell>
        <mxCell id="DTnAzmeqmF2A0JMvfNSm-37" value="&lt;u&gt;Mã sản phẩm&lt;/u&gt;" style="rounded=0;whiteSpace=wrap;html=1;" vertex="1" parent="1">
          <mxGeometry x="80" y="380" width="120" height="60" as="geometry" />
        </mxCell>
        <mxCell id="DTnAzmeqmF2A0JMvfNSm-38" value="Sản phẩm" style="text;html=1;strokeColor=none;fillColor=none;align=center;verticalAlign=middle;whiteSpace=wrap;rounded=0;" vertex="1" parent="1">
          <mxGeometry x="80" y="340" width="60" height="30" as="geometry" />
        </mxCell>
        <mxCell id="DTnAzmeqmF2A0JMvfNSm-39" value="Gía" style="rounded=0;whiteSpace=wrap;html=1;" vertex="1" parent="1">
          <mxGeometry x="440" y="380" width="120" height="60" as="geometry" />
        </mxCell>
        <mxCell id="DTnAzmeqmF2A0JMvfNSm-40" value="Số lượng" style="rounded=0;whiteSpace=wrap;html=1;" vertex="1" parent="1">
          <mxGeometry x="320" y="380" width="120" height="60" as="geometry" />
        </mxCell>
        <mxCell id="DTnAzmeqmF2A0JMvfNSm-41" value="Tên sản phẩm" style="rounded=0;whiteSpace=wrap;html=1;" vertex="1" parent="1">
          <mxGeometry x="200" y="380" width="120" height="60" as="geometry" />
        </mxCell>
        <mxCell id="DTnAzmeqmF2A0JMvfNSm-42" value="Địa chỉ" style="rounded=0;whiteSpace=wrap;html=1;" vertex="1" parent="1">
          <mxGeometry x="441" y="480" width="99" height="60" as="geometry" />
        </mxCell>
        <mxCell id="DTnAzmeqmF2A0JMvfNSm-43" value="" style="endArrow=classic;html=1;rounded=0;exitX=0.5;exitY=0;exitDx=0;exitDy=0;entryX=0.5;entryY=1;entryDx=0;entryDy=0;" edge="1" parent="1" source="DTnAzmeqmF2A0JMvfNSm-30" target="DTnAzmeqmF2A0JMvfNSm-28">
          <mxGeometry width="50" height="50" relative="1" as="geometry">
            <mxPoint x="670" y="470" as="sourcePoint" />
            <mxPoint x="720" y="420" as="targetPoint" />
          </mxGeometry>
        </mxCell>
        <mxCell id="DTnAzmeqmF2A0JMvfNSm-44" value="" style="endArrow=classic;html=1;rounded=0;entryX=0;entryY=0.5;entryDx=0;entryDy=0;exitX=0;exitY=0.5;exitDx=0;exitDy=0;" edge="1" parent="1" source="DTnAzmeqmF2A0JMvfNSm-36" target="DTnAzmeqmF2A0JMvfNSm-31">
          <mxGeometry width="50" height="50" relative="1" as="geometry">
            <mxPoint x="670" y="770" as="sourcePoint" />
            <mxPoint x="720" y="720" as="targetPoint" />
            <Array as="points">
              <mxPoint x="30" y="700" />
              <mxPoint x="30" y="600" />
            </Array>
          </mxGeometry>
        </mxCell>
        <mxCell id="DTnAzmeqmF2A0JMvfNSm-45" value="" style="endArrow=classic;html=1;rounded=0;exitX=0.75;exitY=0;exitDx=0;exitDy=0;entryX=1;entryY=0.5;entryDx=0;entryDy=0;" edge="1" parent="1" source="DTnAzmeqmF2A0JMvfNSm-49" target="DTnAzmeqmF2A0JMvfNSm-20">
          <mxGeometry width="50" height="50" relative="1" as="geometry">
            <mxPoint x="670" y="770" as="sourcePoint" />
            <mxPoint x="590" y="180" as="targetPoint" />
            <Array as="points">
              <mxPoint x="740" y="400" />
              <mxPoint x="740" y="180" />
            </Array>
          </mxGeometry>
        </mxCell>
        <mxCell id="DTnAzmeqmF2A0JMvfNSm-46" value="" style="endArrow=classic;html=1;rounded=0;exitX=0.5;exitY=0;exitDx=0;exitDy=0;entryX=0.5;entryY=1;entryDx=0;entryDy=0;" edge="1" parent="1" source="DTnAzmeqmF2A0JMvfNSm-42" target="DTnAzmeqmF2A0JMvfNSm-15">
          <mxGeometry width="50" height="50" relative="1" as="geometry">
            <mxPoint x="569" y="150" as="sourcePoint" />
            <mxPoint x="660" y="410" as="targetPoint" />
            <Array as="points">
              <mxPoint x="640" y="420" />
              <mxPoint x="640" y="240" />
            </Array>
          </mxGeometry>
        </mxCell>
        <mxCell id="DTnAzmeqmF2A0JMvfNSm-47" value="" style="endArrow=classic;html=1;rounded=0;entryX=0;entryY=0.5;entryDx=0;entryDy=0;exitX=0.5;exitY=1;exitDx=0;exitDy=0;" edge="1" parent="1" source="DTnAzmeqmF2A0JMvfNSm-35" target="DTnAzmeqmF2A0JMvfNSm-37">
          <mxGeometry width="50" height="50" relative="1" as="geometry">
            <mxPoint x="499" y="150" as="sourcePoint" />
            <mxPoint x="720" y="320" as="targetPoint" />
            <Array as="points">
              <mxPoint x="260" y="810" />
              <mxPoint x="20" y="810" />
              <mxPoint x="20" y="410" />
            </Array>
          </mxGeometry>
        </mxCell>
        <mxCell id="DTnAzmeqmF2A0JMvfNSm-49" value="Số điện thoại" style="rounded=0;whiteSpace=wrap;html=1;" vertex="1" parent="1">
          <mxGeometry x="540" y="480" width="90" height="60" as="geometry" />
        </mxCell>
        <mxCell id="DTnAzmeqmF2A0JMvfNSm-50" value="Email" style="rounded=0;whiteSpace=wrap;html=1;" vertex="1" parent="1">
          <mxGeometry x="630" y="480" width="90" height="60" as="geometry" />
        </mxCell>
        <mxCell id="DTnAzmeqmF2A0JMvfNSm-51" value="Ngày đặt hàng" style="rounded=0;whiteSpace=wrap;html=1;" vertex="1" parent="1">
          <mxGeometry x="315" y="570" width="120" height="60" as="geometry" />
        </mxCell>
        <mxCell id="DTnAzmeqmF2A0JMvfNSm-52" value="Trạng thái" style="rounded=0;whiteSpace=wrap;html=1;" vertex="1" parent="1">
          <mxGeometry x="435" y="570" width="120" height="60" as="geometry" />
        </mxCell>
      </root>
    </mxGraphModel>
  </diagram>
</mxfile>
